<?xml version="1.0" encoding="utf-8"?>
<!-- Generator: Adobe Illustrator 22.1.0, SVG Export Plug-In . SVG Version: 6.00 Build 0)  -->
<svg version="1.1" id="Layer_1" xmlns="http://www.w3.org/2000/svg" xmlns:xlink="http://www.w3.org/1999/xlink" x="0px" y="0px"
	 width="50px" height="100px" viewBox="0 0 50 100" enable-background="new 0 0 50 100" xml:space="preserve">
<rect x="23.6" y="88.1" fill="#42210B" stroke="#42210B" stroke-miterlimit="10" width="14.9" height="8.9"/>
<rect x="3.5" y="88.1" fill="#42210B" stroke="#42210B" stroke-miterlimit="10" width="14.9" height="8.9"/>
<rect x="10.9" y="73.8" fill="#0000FF" stroke="#0000FF" stroke-miterlimit="10" width="7.4" height="13.4"/>
<rect x="23.6" y="73.8" fill="#0000FF" stroke="#0000FF" stroke-miterlimit="10" width="7.4" height="13.4"/>
<rect x="11.7" y="65.8" fill="#0000FF" stroke="#0000FF" stroke-miterlimit="10" width="18.6" height="7.1"/>
<rect x="11.7" y="40.8" fill="#FFFF00" stroke="#FFFF00" stroke-miterlimit="10" width="18.6" height="24.1"/>
<rect x="14.7" y="28.2" fill="#FBB03B" stroke="#FBB03B" stroke-miterlimit="10" width="12.7" height="11.6"/>
<rect x="17.6" y="31.8" stroke="#000000" stroke-miterlimit="10" width="1.5" height="1.8"/>
<rect x="22.9" y="31.8" stroke="#000000" stroke-miterlimit="10" width="1.5" height="1.8"/>
<rect x="17.6" y="37.2" fill="#ED1C24" stroke="#ED1C24" stroke-miterlimit="10" width="6.7" height="0.9"/>
<rect x="14.7" y="22" fill="#ED1C24" stroke="#ED1C24" stroke-miterlimit="10" width="12.7" height="5.4"/>
<rect x="9.5" y="24.7" fill="#ED1C24" stroke="#ED1C24" stroke-miterlimit="10" width="4.5" height="2.7"/>
<rect x="31.1" y="40.8" fill="#FFFF00" stroke="#FFFF00" stroke-miterlimit="10" width="6.1" height="6.6"/>
<rect x="4.8" y="40.8" fill="#FFFF00" stroke="#FFFF00" stroke-miterlimit="10" width="6.1" height="6.6"/>
<rect x="5.5" y="48.5" fill="#FBB03B" stroke="#FBB03B" stroke-miterlimit="10" width="5" height="20"/>
<rect x="31.5" y="48.5" fill="#FBB03B" stroke="#FBB03B" stroke-miterlimit="10" width="13" height="5"/>
<rect x="39.5" y="36.5" fill="#FBB03B" stroke="#FBB03B" stroke-miterlimit="10" width="5" height="11"/>
<rect x="39.5" y="33.5" fill="#2E3192" stroke="#2E3192" stroke-miterlimit="10" width="6" height="2"/>
<rect x="43.5" y="29.5" fill="#2E3192" stroke="#2E3192" stroke-miterlimit="10" width="2" height="3"/>
</svg>
